<?xml version="1.0" encoding="UTF-8"?>
<svg id="Layer_2" data-name="Layer 2" xmlns="http://www.w3.org/2000/svg" xmlns:xlink="http://www.w3.org/1999/xlink" viewBox="0 0 191.44 42.97">
  <defs>
    <style>
      .cls-1 {
        fill: none;
        stroke: #fff;
        stroke-miterlimit: 10;
        stroke-width: .5px;
      }

      .cls-2 {
        fill: url(#linear-gradient);
      }

      .cls-2, .cls-3, .cls-4, .cls-5, .cls-6, .cls-7 {
        stroke-width: 0px;
      }

      .cls-3 {
        fill: url(#linear-gradient-4);
      }

      .cls-4 {
        fill: url(#linear-gradient-2);
      }

      .cls-5 {
        fill: url(#linear-gradient-3);
      }

      .cls-6 {
        fill: url(#linear-gradient-5);
      }

      .cls-7 {
        fill: url(#linear-gradient-6);
      }

      .cls-8 {
        fill: #fff;
        font-family: ArialMT, Arial;
        font-size: 4.38px;
      }
    </style>
    <linearGradient id="linear-gradient" x1="14.75" y1="2502.65" x2="152.44" y2="2556.87" gradientTransform="translate(0 -2474.22)" gradientUnits="userSpaceOnUse">
      <stop offset="0" stop-color="#9be13f"/>
      <stop offset="1" stop-color="#56cee2"/>
    </linearGradient>
    <linearGradient id="linear-gradient-2" x1="19.87" y1="2489.66" x2="157.56" y2="2543.87" xlink:href="#linear-gradient"/>
    <linearGradient id="linear-gradient-3" x1="24.93" y1="2476.8" x2="162.62" y2="2531.01" xlink:href="#linear-gradient"/>
    <linearGradient id="linear-gradient-4" x1="30.24" y1="2463.31" x2="167.93" y2="2517.52" xlink:href="#linear-gradient"/>
    <linearGradient id="linear-gradient-5" x1="33.84" y1="2454.17" x2="171.53" y2="2508.39" xlink:href="#linear-gradient"/>
    <linearGradient id="linear-gradient-6" x1="28.95" y1="2443.56" x2="174.2" y2="2500.76" xlink:href="#linear-gradient"/>
  </defs>
  <g id="Layer_2-2" data-name="Layer 2">
    <g>
      <g id="Layer_2-2" data-name="Layer 2-2">
        <g id="Layer_1-2" data-name="Layer 1-2">
          <g>
            <path class="cls-2" d="M0,42.96l.9-2.09L14.38,9.76l.41-.89h1.95l.42.9,13.48,31.1.89,2.09c-.81,0-1.8-.02-2.98-.03h-.66c-2.04-.04-3.81-.07-3.81-.07l-13.21-.03,1.1-3.02,14.85-.16L15.76,14.13,3.66,42.07l-.41.89H0Z"/>
            <path class="cls-4" d="M60.28,42.96l-.3-1.07c-1.15-3.79-2.2-6.73-3.14-8.75-1.14-2.4-2.62-4.28-4.38-5.61l-.16-.12h-11.2v15.56h-2.98v-17.05l.05-15.5v-1.5h1.49l13.12-.05c2.54,0,4.79.79,6.68,2.35,2.3,1.87,3.42,4.15,3.42,6.96,0,1.03-.2,2.06-.58,3.06-.92,2.47-2.63,4.21-5.24,5.33l-.73.31.51.6c1.94,2.28,3.94,6.85,5.95,13.58l.6,1.9h-3.12.01ZM41.1,24.48h6.57l-.05-.05h5.21c1.37,0,2.67-.34,3.86-1.01,2.13-1.21,3.2-2.97,3.2-5.23,0-1.3-.42-2.52-1.26-3.62-1.39-1.8-3.36-2.72-5.86-2.72h-11.68v12.62h0Z"/>
            <polygon class="cls-5" points="72.34 42.96 72.34 8.87 96.06 8.87 96.06 11.85 75.32 11.85 75.32 24.43 90.46 24.43 90.46 27.41 75.32 27.41 75.32 39.98 96.06 39.98 96.06 42.96 72.34 42.96"/>
            <polygon class="cls-3" points="115.43 42.96 115.01 42.06 101.48 10.96 100.59 8.87 103.84 8.87 104.26 9.77 116.4 37.7 128.45 9.76 128.86 8.87 132.11 8.87 131.21 10.96 117.78 42.07 117.38 42.96 115.43 42.96"/>
            <polygon class="cls-6" points="138.71 42.96 138.71 8.87 162.43 8.87 162.43 11.85 141.69 11.85 141.69 24.43 156.83 24.43 156.83 27.41 141.69 27.41 141.69 39.98 162.43 39.98 162.43 42.96 138.71 42.96"/>
            <path class="cls-7" d="M171.17,42.97V15.83l2.98,2.48v24.66h-2.98ZM171.2,8.89h2.95v1.95l-2.95-1.95Z"/>
          </g>
        </g>
      </g>
      <g>
        <text class="cls-8" transform="translate(182.73 7.27)"><tspan x="0" y="0">TM</tspan></text>
        <circle class="cls-1" cx="185.89" cy="5.55" r="5.3"/>
      </g>
    </g>
  </g>
</svg>