<!-- <?xml version="1.0" encoding="UTF-8"?> -->
<svg id="Layer_1" data-name="Layer 1" xmlns="http://www.w3.org/2000/svg" viewBox="0 0 190 60">
  <defs>
    <style>
      .cls-1 {
        fill: #e4b44a;
      }

      .cls-1, .cls-2, .cls-3 {
        stroke-width: 0px;
      }

      .cls-2 {
        fill: #64c3ea;
      }

      .cls-3 {
        fill: #cd385c;
      }

      .cls-4, .cls-5 {
        isolation: isolate;
      }

      .cls-5 {
        fill: #0d0d0d;
        font-family: Poppins-Medium, Poppins;
        font-size: 4.88px;
        font-weight: 500;
      }
    </style>
  </defs>
  <g>
    <path class="cls-3" d="M89.1,35.67c0,6.62-5.65,11.88-14.23,11.88-2.56,0-4.62-.44-6.21-.97l-.11-.04c-1.6-.51-2.49-1.02-3.12-1.32-.05-.12-.1-.29-.14-.49-.46-1.83-1.24-6.63-1.59-9.32l1.9-.54c.63,2.31,1.95,5.5,4.26,7.73,1.6,1.54,3.68,2.62,6.32,2.62.94,0,1.8-.12,2.57-.36,3-.87,4.71-3.37,4.71-6.88,0-2.53-1.08-4.29-2.88-5.82-1.26-1.07-2.89-2.02-4.77-3.01-.17-.08-.34-.18-.52-.27-4.38-2.19-10.4-5.27-10.4-12.05,0-6.14,4.97-11.24,13.19-11.24.81,0,1.61.05,2.39.14,1.62.19,3.17.55,4.58.96l-1.83,4.28-2.59,6.06-1.7-.74c.86-2.61,2.82-6.91-.14-8.4-.52-.11-1.08-.17-1.68-.17-4.72,0-6.95,3.33-6.95,6.7,0,4.34,2.9,6.44,8.03,8.93h.01c.75.37,1.51.74,2.24,1.13,2.53,1.32,4.92,2.82,6.55,4.9.65.82,1.19,1.74,1.55,2.78.37,1.03.57,2.19.57,3.5h0Z"/>
    <path class="cls-1" d="M107.78,44.81v1.77h-15.92v-1.77c3.91-.54,4.46-1.09,3.62-3.58-.89-2.44-2.02-5.51-3.37-9.06h-2.51c-.37-1.03-.9-1.96-1.55-2.78h3.14l-5.53-15.33h-.12c-1.38,3.45-2.66,6.79-3.97,10.26-.74-.39-2.25-1.13-2.25-1.13l5.01-12.16,1.88-4.56h1.17l1.48.04c4.04,10.91,7.77,20.93,11.94,31.76,2.02,5.44,2.9,6.11,6.99,6.53h0Z"/>
    <path class="cls-2" d="M98.16,28.67c1.47-.34,2.88-1.17,5.18-3.92,3.28-3.85,6.75-9.25,8.83-12.99,1.42-2.56,1.81-2.91-1.14-3.29l-1.35-.09v-1.85h15.55v1.85c-4.72.42-5.84.91-9.8,4.32-2.45,2.61-5.84,8.02-9.81,12.8,4.68,5.77,9.66,11.14,13.12,14.81,3.24,3.46,4.63,4.13,7.58,4.51v1.77h-10.24c-4.68-5.27-6.86-7.73-12.59-14.43-1.47-1.77-3.31-1.04-4.4-.87"/>
  </g>
  <g class="cls-4">
    <text class="cls-5" transform="translate(63.7 54.41)"><tspan x="0" y="0">SAKTIVATE ENTERPRISE LLP</tspan></text>
  </g>
</svg>