<?xml version="1.0" encoding="UTF-8"?>
<svg id="Layer_1" data-name="Layer 1" xmlns="http://www.w3.org/2000/svg" xmlns:xlink="http://www.w3.org/1999/xlink" viewBox="0 0 190 60">
  <defs>
    <style>
      .cls-1 {
        letter-spacing: .05em;
      }

      .cls-2 {
        letter-spacing: .05em;
      }

      .cls-3 {
        letter-spacing: .04em;
      }

      .cls-4 {
        fill: #ca8776;
      }

      .cls-4, .cls-5, .cls-6, .cls-7, .cls-8, .cls-9, .cls-10, .cls-11, .cls-12, .cls-13, .cls-14, .cls-15, .cls-16, .cls-17, .cls-18, .cls-19, .cls-20 {
        stroke-width: 0px;
      }

      .cls-21 {
        clip-path: url(#clippath);
      }

      .cls-5 {
        fill: none;
      }

      .cls-6 {
        fill: #43a0b8;
      }

      .cls-22 {
        letter-spacing: -.03em;
      }

      .cls-7 {
        fill: #7bcbd6;
      }

      .cls-8 {
        fill: #f8f8f8;
      }

      .cls-23 {
        letter-spacing: .06em;
      }

      .cls-24 {
        letter-spacing: .06em;
      }

      .cls-25 {
        letter-spacing: -.03em;
      }

      .cls-9 {
        fill: #237a4e;
      }

      .cls-10 {
        fill: #c92328;
      }

      .cls-11 {
        fill: #e4bcaa;
      }

      .cls-12 {
        fill: #3a3a3a;
      }

      .cls-26 {
        letter-spacing: -.05em;
      }

      .cls-27 {
        letter-spacing: .07em;
      }

      .cls-28 {
        letter-spacing: -.02em;
      }

      .cls-29 {
        letter-spacing: .05em;
      }

      .cls-30 {
        letter-spacing: .05em;
      }

      .cls-31 {
        letter-spacing: .05em;
      }

      .cls-13 {
        fill: #269b65;
      }

      .cls-14 {
        fill: #292828;
      }

      .cls-32 {
        letter-spacing: .07em;
      }

      .cls-33 {
        font-family: Poppins-SemiBoldItalic, Poppins;
        font-size: 10.6px;
        font-style: italic;
        font-weight: 600;
      }

      .cls-33, .cls-34 {
        fill: #231f20;
      }

      .cls-15 {
        fill: #2cb679;
      }

      .cls-35 {
        letter-spacing: -.03em;
      }

      .cls-16 {
        fill: #9ad9e2;
      }

      .cls-17 {
        fill: #277c91;
      }

      .cls-36 {
        letter-spacing: -.03em;
      }

      .cls-18 {
        fill: #201812;
      }

      .cls-37 {
        letter-spacing: .05em;
      }

      .cls-34 {
        font-family: AdobeClean-Regular, 'Adobe Clean';
        font-size: 3.29px;
      }

      .cls-19 {
        fill: #daa895;
      }

      .cls-20 {
        fill: #0e9bb7;
      }
    </style>
    <clipPath id="clippath">
      <path class="cls-5" d="M72.31,22.57c0,11.32,9.18,20.5,20.5,20.5s20.5-9.18,20.5-20.5S104.14,2.07,92.81,2.07s-20.5,9.18-20.5,20.5"/>
    </clipPath>
  </defs>
  <text class="cls-34" transform="translate(62.97 57.59)"><tspan class="cls-37" x="0" y="0">H</tspan><tspan class="cls-27" x="2.34" y="0">E</tspan><tspan class="cls-2" x="4.26" y="0">A</tspan><tspan class="cls-26" x="6.36" y="0">L</tspan><tspan class="cls-2" x="7.77" y="0">T</tspan><tspan class="cls-37" x="9.64" y="0">H</tspan><tspan class="cls-2" x="11.98" y="0">Y BRA</tspan><tspan class="cls-29" x="20.89" y="0">N</tspan><tspan class="cls-24" x="23.28" y="0">D</tspan><tspan class="cls-1" x="25.62" y="0">S </tspan><tspan class="cls-3" x="28.27" y="0">P</tspan><tspan class="cls-30" x="30.2" y="0">ROFI</tspan><tspan class="cls-28" x="37.36" y="0">T</tspan><tspan class="cls-1" x="38.99" y="0">AB</tspan><tspan class="cls-37" x="43.08" y="0">L</tspan><tspan class="cls-1" x="44.83" y="0">E </tspan><tspan class="cls-37" x="47.59" y="0">B</tspan><tspan class="cls-1" x="49.6" y="0">US</tspan><tspan class="cls-31" x="53.61" y="0">IN</tspan><tspan class="cls-32" x="56.97" y="0">E</tspan><tspan class="cls-23" x="58.88" y="0">S</tspan><tspan x="60.66" y="0">S</tspan></text>
  <g class="cls-21">
    <path class="cls-15" d="M119.54,25.32c0,14.51-11.77,26.28-26.28,26.28s-26.28-11.77-26.28-26.28S78.75-.96,93.26-.96s26.28,11.77,26.28,26.28"/>
    <path class="cls-9" d="M110.62,25.32c0,9.59-7.77,17.36-17.36,17.36s-17.36-7.77-17.36-17.36,7.77-17.36,17.36-17.36,17.36,7.77,17.36,17.36"/>
    <path class="cls-18" d="M90.73,3.31c.06,0,.12-.02.18-.03.05-.02.11-.04.16-.05.73-.14,1.47-.21,2.22-.2.09,0,.17.01.26.02.09,0,.17,0,.26,0h0s.24.04.24.04c.09.01.18.03.27.04.17.05.34.09.51.14.06.01.11.02.17.03.21.13.44.2.68.26.12.05.23.11.35.16.54.35,1.13.54,1.76.73-.02-.2-.27-.24-.19-.47.49.31,1.04.6,1.26,1.09.38.89,1.14,1.26,1.87,1.71.02.01.05.03.07.04.65.69.94,1.53,1.05,2.45.21,1.85.28,3.71.16,5.57-.18.23-.03.51-.13.75-.09.3-.13.63-.31.9-.08.12-.15.14-.16-.04-.03-.19-.13-.38-.07-.58.2-.64.04-1.21-.33-1.74,0-.76-.2-1.48-.43-2.2-.11-.34-.2-.69-.17-1.04.08-.9-.16-1.74-.5-2.56-.34-.83-.77-1.13-1.65-1.08-.75.04-1.46.21-1.89.94-.11.18-.27.33-.4.49-.72.68-1.58,1.06-2.59,1.33.2-.28.36-.5.52-.71.2-.31.46-.6.45-1.12-.37.4-.65.7-.94,1.01-.49.39-.97.78-1.55,1.01-.25.1-.49.28-.79.17h.01c.12-.15.32-.26.33-.48.04-.04.09-.09.13-.13.03-.06.07-.11.1-.17.38-.54.57-1.13.5-1.89-.45.68-.99,1.14-1.45,1.67-.06.05-.12.11-.19.15-.05.03-.08.14-.15.07-.03-.03,0-.12,0-.19.22-.75.04-1.25-.53-1.51-1.43-.66-3,.06-3.4,1.57-.19.43-.31.87-.37,1.33-.1.2-.07.42-.07.63,0,.14,0,.28,0,.43v.08c0,.06.01.11.01.17,0,.71-.29,1.33-.54,1.96-.42.6-.52,1.25-.33,1.96.05.19.14.26.33.25.18-.01.18-.15.18-.28,0-.31,0-.62,0-.93,0-.07-.03-.2.12-.11,0,.36.01.72.02,1.08-.07.12-.07.23.03.33.02.08.05.16.07.25-.17.06-.16.17-.07.3.09.12.19.24.28.37.05.08.21.1.17.21-.05.13-.2.06-.3.08-.02,0-.04,0-.07-.01-.21-.24-.42-.49-.63-.74-.13.22-.05.48-.22.65-.5-.53-.56-1.22-.73-1.88,0-.1.02-.2-.08-.26,0-.02,0-.05.01-.07,0-.03,0-.05-.04-.07-.05-.71-.12-1.41-.15-2.12-.08-1.8-.02-3.57.79-5.24.29-.6.71-1.12,1.03-1.7.83-.84,1.78-1.51,2.86-2.01.1-.05.2-.1.3-.15.1-.02.2-.04.27-.13l.18-.08c.1,0,.18-.02.25-.1.06-.02.11-.04.17-.05.03-.01.05-.02.08-.04h0c.07,0,.14,0,.19-.07.19-.06.39-.13.58-.19"/>
    <path class="cls-8" d="M84.95,32.27c-.15-.4-.06-.76.11-1.13.41-.88,1.08-1.56,1.65-2.32.02-.02.02-.05.03-.08h0c.28-.24.56-.49.84-.74.03-.04.06-.08.09-.12h0s.12,0,.09-.08c0,0,.02.02.02.02.52-.26,1.03-.52,1.55-.78.52-.11,1-.34,1.54-.38.2.45.4.9.71,1.3.35.7.74,1.39,1.02,2.12.04.29.08.58.12.87.03.17.05.34.08.51-.01.13-.05.27.06.38h-.01c-.04,1.01-.08,2.02-.12,3.03-.03.46-.06.92-.09,1.37-.08.25-.08.5-.08.76,0,.05,0,.09-.01.14-.01.13-.03.25-.04.38-.01,0,.01.03.01.03,0,0-.03.02-.02.04,0,.1.01.2.13.25,0,.03,0,.05.01.08-.18,0-.19.11-.2.25-.05.79-.11,1.58-.17,2.38-.11,0-.22.02-.33.02-.31-.03-.62-.05-.94-.08-.09,0-.17,0-.26,0-.08-.02-.17-.03-.25-.05-.29-.06-.57-.13-.86-.19-.22-.08-.44-.17-.65-.25-.21-.08-.23-.25-.22-.45.05-.82.09-1.63.14-2.45.32.03.64.06.91-.17.24-.12.16-.25,0-.39-.33-.29-.7-.54-.94-.91,0-.17-.02-.34-.02-.51v-.48c0-.46.06-.92-.06-1.37,0-.53,0-1.06,0-1.6.1-.34.07-.69.08-1.05-.32.37-.59.77-.89,1.14-.2.24-.18.45-.08.73.23.65.48,1.3.56,1.99-.03.05-.07.09-.1.14-.02.02-.04.05-.06.07,0,.06-.02.11-.03.17-.29.28-.62.5-1.02.6-.14,0-.28,0-.42,0-.29-.21-.35-.57-.52-.85-.28-.44-.51-.91-.77-1.36-.17-.34-.34-.68-.58-.99M89.56,32.76c.08.61.22,1.2.41,1.79.09.29.31.46.59.57.09.03.21.06.25-.07.04-.13-.06-.17-.17-.17-.31-.02-.43-.23-.51-.49-.18-.53-.24-1.08-.34-1.62.05-.13,0-.25-.02-.38-.09-.49-.18-.98-.14-1.48.03-.3.17-.52.45-.61.28-.08.53,0,.72.23.22.27.33.59.44.91.12.36.07.75.27,1.09-.03.23.04.45.04.68,0,.55.32,1.17-.33,1.59-.08.05-.08.15,0,.22.08.06.16.03.22-.04.23-.26.42-.54.4-.91-.02-.52-.06-1.05-.18-1.56.02-.76-.17-1.45-.58-2.09-.12-.19-.29-.34-.5-.37-.26-.04-.26-.19-.27-.39-.04-.69.19-1.36.1-2.05-.08,0-.09.06-.11.11-.2.64-.3,1.29-.27,1.97,0,.15.05.34-.16.38-.42.09-.47.44-.52.76-.1.66.05,1.29.2,1.93"/>
    <path class="cls-18" d="M96.55,42.54c0,.18-.15.33-.09.52-.03.28-.05.56,0,.85.09.11.18.23.27.34-.15.03-.31.04-.45.08-.39.13-.47.47-.15.73.51.41,1.05.74,1.76.65.25-.03.36-.11.37-.35.26.79.12,1.03-.8,1.35-.02,0-.04.01-.07.02-.26,0-.52,0-.78,0-.03,0-.05-.02-.08-.02-.12-.05-.23-.1-.35-.15-.06-.1-.15-.16-.27-.14h-.01c-.5-.56-1.07-1.02-1.78-1.26-.34-.12-.43-.3-.42-.62,0-.47.04-.93-.03-1.4,0-.05,0-.11,0-.16.04-.18.06-.36-.03-.53,0-.78-.25-1.53-.34-2.3-.04-.34,0-.7-.26-.98-.25-.06-.37-.02-.42.29-.24,1.53-.47,3.06-.62,4.6-.08-.06-.15-.12-.16-.23.03-.31.05-.62.08-.93.17-.82.03-1.52-.79-1.93-.2-.1-.13-.29-.14-.45.31.03.62.05.94.08.02.12.08.18.2.16.11-.01.13-.1.13-.19.06-.79.12-1.58.17-2.38,0-.14.06-.59.06-.59v-.07s.03-.25.05-.38c.08-.01.16-.02.24-.03.2-.03.39-.06.59-.09.09,1.18.19,2.36.28,3.54.26.27.25.56.1.88-.06.13-.07.3.06.43,0,.17,0,.34,0,.51,0,.12,0,.23,0,.35.08.38-.05.82.28,1.14.04.04.05.1.02.15-.04.08-.27.08-.14.24.11.14.29.11.43.07.43-.12.85-.27,1.28-.41.15-.13.39-.02.58-.22-.27-.02-.33-.16-.32-.37.06-.71.1-1.43.16-2.14.02-.29.03-.58-.15-.83.31-.09.61-.19.92-.28-.04.37-.09.75-.13,1.12-.01.15-.03.31-.04.46-.05.3-.09.6-.14.9"/>
    <path class="cls-17" d="M88.34,37.23s.02,0,.03-.01c0,0-.01-.02-.02-.02,0,0-.02,0-.03.01,0,0,.01.01.02.02"/>
    <path class="cls-14" d="M88.18,44.68c.08,0,.17,0,.25-.01-.06.18-.23.23-.36.34-.08.06-.16.14-.12.25.04.12.16.1.26.09.37-.04.7-.2,1-.4.21-.13.15-.27-.08-.35-.25-.08-.47.08-.71.06.2-.17.41-.34.61-.51.02.09.04.15.17.13.26-.04.45.09.5.34.05.23-.05.41-.27.52-.14.07-.25.18-.38.27-.55.38-1.05.39-1.63.02.02-.09.04-.18.06-.26.19-.23.47-.32.69-.5"/>
    <path class="cls-14" d="M98.27,45.36c-.01.24-.12.31-.37.35-.71.09-1.25-.24-1.76-.65-.32-.26-.25-.6.15-.73.14-.05.3-.06.45-.08.15.11.29.22.44.33-.18,0-.37,0-.55.02-.1,0-.21-.01-.24.12-.02.1.05.16.12.2.22.13.43.27.67.37.61.27.68.21.64-.42.19.13.38.25.45.49"/>
    <path class="cls-12" d="M97.82,44.87c.04.63-.04.68-.64.42-.23-.1-.45-.25-.67-.37-.08-.04-.14-.11-.12-.2.02-.14.14-.12.24-.12.18,0,.37-.01.55-.02.1.03.2.06.3.08.11.07.23.14.34.21"/>
    <path class="cls-19" d="M88.61,37.08c-.2,0-.4,0-.6,0-.78-.25-1.04-.89-1.18-1.61.14,0,.28,0,.42,0,0,.1-.03.21,0,.3.14.33.04.81.65.85.22.01.56.16.71.46"/>
    <path class="cls-17" d="M89.71,3.66c-.06.07-.15.1-.25.1.02-.18.1-.21.25-.1"/>
    <path class="cls-17" d="M89.28,3.84c-.06.09-.16.11-.27.13.06-.11.09-.27.27-.13"/>
    <path class="cls-17" d="M90.15,3.5c-.05.06-.11.08-.19.07.05-.06.11-.09.19-.07"/>
    <path class="cls-17" d="M87.76,27.8c.02.09-.05.08-.09.09.03-.03.06-.06.09-.09"/>
    <path class="cls-17" d="M89.96,3.57s-.05.02-.08.04c.03-.01.05-.02.08-.04"/>
    <path class="cls-17" d="M96.53,46.7s.05.02.08.02c-.03,0-.05-.02-.08-.02"/>
    <path class="cls-17" d="M97.4,46.73s.04-.01.07-.02l-.03.02h-.04Z"/>
    <path class="cls-11" d="M101.72,28.39c-.01-.7.21-1.33.59-1.91.1-.16.28-.29.25-.52.23-.19.25-.58.62-.64.04.49-.11.93-.29,1.38-.18.45-.05.96.31,1.14.02-.23-.16-.43-.08-.66.64-.15,1.29-.23,1.95-.29.28-.03.53.02.73.23-.66-.01-1.3.04-1.93.27.66.1,1.31-.02,1.96-.1.16.08.4.06.43.32-.5.16-1.03.14-1.54.19-.2.02-.4.01-.57.2.23.1.43.05.62.05.35,0,.7-.12,1.05-.07.15.02.34.05.33.25,0,.21-.2.16-.33.16-.41,0-.82,0-1.23,0-.17,0-.33.01-.51.28h1.84s.05.09.07.14c0,.03,0,.06,0,.1-.03.03-.05.06-.08.08-.08,0-.16,0-.25,0-.24,0-.47-.02-.71,0-.15,0-.35-.08-.41.16-.14,0-.28,0-.41.01-.45-.08-.74.39-1.19.37-.11,0-.4-.06-.44.22-.02,0-.05,0-.07,0,.01-.59-.15-1.08-.71-1.37"/>
    <path class="cls-19" d="M103.12,27.18c-.08.23.1.43.08.66-.36-.18-.49-.69-.31-1.14.18-.44.34-.89.29-1.38.5.05.6.23.45.83-.22.32-.5.6-.51,1.02"/>
    <path class="cls-20" d="M95.68,3.57c-.23-.06-.47-.13-.68-.26.28-.05.49.06.68.26"/>
    <path class="cls-20" d="M94.83,3.28c-.17-.05-.34-.09-.51-.14.21-.12.4-.14.51.14"/>
    <path class="cls-17" d="M93.55,3.06c-.09,0-.17-.01-.26-.02.07-.07.16-.04.25-.05,0,.02,0,.04.01.06"/>
    <path class="cls-20" d="M93.55,3.06s0-.04-.01-.06c.1-.01.2-.02.27.07-.09,0-.17,0-.26,0"/>
    <path class="cls-20" d="M94.05,3.1l-.24-.04.24.04Z"/>
    <path class="cls-20" d="M91.07,3.23c-.05.02-.11.04-.16.05.05-.02.11-.04.16-.05"/>
    <path class="cls-11" d="M90.32,9.4c0,.06-.03.16,0,.19.07.07.1-.04.15-.07.07-.04.13-.1.19-.15.26.13.37.48.71.52-.01.23-.21.33-.33.49,0,.02.01.05.02.07,0,0,.02-.02.03-.03l-.05-.04c.3.12.54-.07.79-.17.58-.23,1.07-.62,1.55-1.01.15.09.32.09.49.1-.16.22-.31.43-.52.71,1-.26,1.87-.65,2.59-1.33.19.2.42.19.62.05.5-.34.96-.2,1.49-.05.77.21,1.25.57,1.57,1.35.27.66.16,1.34.41,1.97.02.05-.03.13-.05.2-.14.51-.17,1.05-.37,1.55-.6-.07-1.19-.14-1.79-.22-.06-.05-.12-.1-.19-.15,0-.24-.23-.18-.34-.25-.6-.39-1.52-.29-2,.22-.1.11-.22.23-.17.41-.44.16-.93.23-1.27.57-.35.35-.88.28-1.07.13-.52-.4-1.12-.54-1.69-.77.01-.24-.16-.33-.33-.45-.33-.22-.72-.08-1.07-.18-.42-.11-.57.02-.64.48-.58.04-1.16.08-1.74.13-.08-.04-.16-.04-.22.04-.03,0-.06,0-.09.01-.2-.42-.45-.81-.56-1.28-.05-.21-.16-.4-.44-.36v-.17s.02-.02.02-.03c0-.02-.02-.04-.03-.06,0-.14,0-.28,0-.43.15-.2.07-.42.07-.63.06-.46.18-.9.37-1.33.02.06.06.13.07.19.02.1-.04.26.11.28.15.03.19-.12.21-.22.06-.25.24-.33.45-.39.99-.27,2-.23,3-.07.03,0,.05.09.08.14M87.55,13.33q1.2-1.07,2.71-1.21c.16-.01.35,0,.37-.2.02-.21-.17-.28-.33-.33-.83-.3-2.53.25-2.75,1.74M98.75,13.12c-.24-1.43-1.94-1.99-2.92-1.59-.12.05-.24.14-.21.28.03.17.19.2.33.21.33.01.65,0,.98.04.74.08,1.28.54,1.82,1.06"/>
    <path class="cls-4" d="M100.64,23.11s-.07.06-.1.08c-.7.39-1.26.96-1.87,1.46-.06,0-.12,0-.14.08-.02.01-.04.03-.04.06-.1.02-.18.06-.18.18h0c-.36.04-.57.33-.84.52-.09,0-.18,0-.22.11-.02,0-.03,0-.04.03l-.08.05h0c-.28.06-.52.22-.77.35-.3.09-.59.18-.86.34-.16,0-.29.08-.41.16-.32-.03-.52.13-.68.4-.27.45-.61.85-1.12,1.05-.04,0-.08,0-.12,0-.07-.04-.14-.08-.21-.12,0-.07-.03-.12-.1-.12h-.01c-.03-.89-.05-.92-.89-.98-.2-.05-.4-.11-.61-.16-.08-.09-.19-.06-.28-.09-.25-.08-.48-.24-.75-.25h0c-.06-.09-.16-.1-.26-.08h0c-.07-.2-.28-.16-.41-.25-1.1-.61-2.13-1.32-3.16-2.04-1.07-.75-1.49-1.79-1.57-3.04-.05-.75-.07-1.5,0-2.24.08-.25.13-.51.11-.77,0-.12,0-.23,0-.35.17-.17.1-.43.22-.65.21.25.42.5.63.74-.02.14.03.28-.07.41-.38.48-.53,1.03-.54,1.65,0,.58.17,1.11.32,1.66.25.94.95,1.36,1.79,1.56.77.18,1.55.29,2.26.68.14.08.3.16.34.3.15.49.53.83.75,1.28.53,1.04,1.49,1.35,2.57,1.42.18.01.33-.06.49-.12.69-.25,1.16-.75,1.63-1.3.35-.41.57-.93,1.03-1.22.78-.51,1.63-.87,2.57-1.03.77-.13,1.42-.49,1.88-1.16.3-.43.48-.89.6-1.38.15-.62.07-1.21-.12-1.82-.13-.42-.61-.65-.58-1.14.22-.28.33-.63.61-.87.02.17.09.16.16.04.18-.27.21-.6.31-.9.07-.06.15-.11.22-.17.37.1.41.33.25.64-.23.43-.46.85-.74,1.24,0,.31.05.62.18.91.21,1.06.24,2.12-.04,3.18-.16.61-.49,1.1-.92,1.54-.09.02-.13.08-.16.16"/>
    <path class="cls-19" d="M100.78,17.33c-.03.49.45.71.58,1.14.19.61.27,1.2.12,1.82-.12.5-.31.96-.6,1.38-.46.67-1.11,1.03-1.88,1.16-.94.16-1.78.52-2.57,1.03-.45.3-.68.82-1.03,1.22-.47.55-.94,1.05-1.63,1.3-.16.06-.32.13-.49.12-1.08-.07-2.04-.38-2.57-1.42-.22-.44-.6-.79-.75-1.28-.04-.14-.2-.22-.34-.3-.71-.39-1.49-.5-2.26-.68-.84-.2-1.54-.62-1.79-1.56-.15-.55-.32-1.07-.32-1.66,0-.62.16-1.17.54-1.65.1-.13.05-.27.07-.41.02,0,.04,0,.07.01.06.09.14.14.24.17.12.07.25.14.37.21,0,.02,0,.03,0,.05,0,.1,0,.21-.08.28-.58.47-.65,1.11-.61,1.8.03.56.61,1.16,1.19,1.16q.76,0,.63-.7c.2.03.23-.09.23-.25,0-.15.01-.31.18-.38,0,.02,0,.04,0,.06.05.65.28,1.26.57,1.83.2.38.43.77.88.95-.05.24.17.3.3.4,1.83,1.36,4.53,1.41,6.43.12.26-.18.61-.31.69-.68.35-.16.51-.51.75-.78.41.24.87.16,1.28.09.67-.11,1.37-.28,1.73-.98.27-.51.46-1.04.52-1.63.03-.35-.05-.57-.26-.84-.19-.25-.54-.41-.52-.79.11-.11.22-.21.33-.32M94.31,25.07c-.06-.33-.29-.25-.48-.26-.5-.03-.99.12-1.5.02-.3-.06-.41.15-.31.45.2.61,1.54.77,1.99.33.14-.14.21-.37.29-.53"/>
    <path class="cls-12" d="M100.78,17.33c-.11.11-.22.21-.33.32-.55.36-1.18.54-1.82.66-1.28.25-2.56.35-3.73-.43-.33-.27-.59-.6-.85-.93-.2-.25-.19-.58-.31-.86-.01-.05-.02-.11-.04-.16-.01-.09-.03-.18-.04-.27-.16-.21-.01-.58-.38-.67,0-.01.01-.03.01-.04,0-.01-.02-.03-.02-.03-.39.11-.59-.27-.88-.39-.41-.18-.8-.37-1.24-.51-.45-.14-.9-.09-1.34-.17-.17-.03-.43-.14-.49.05-.07.24.28.06.37.21.03.16.19.13.29.19.42.26.65.63.64,1.13,0,.5-.3.82-.68,1.1-.4.16-.79.02-1.18-.08,0-.12-.17-.05-.18-.15l-.1-.09h0c0-.08,0-.15-.12-.14,0,0,0-.01,0-.01.11-.2-.04-.38-.04-.57,0-.3.1-.49.43-.49-.03.21.05.41.08.62-.1.16.06.24.12.31.2.21.45.2.71.09.26-.11.32-.2.31-.46-.05-.18.13-.4-.1-.56-.11.19-.11.47-.44.42-.29-.04-.32-.28-.39-.49-.02-.07-.02-.14-.03-.21.09-.2-.23-.48.13-.63h-1.05c-.4-.2-1.48-.08-1.81.21,0,0,.02.02.03.03-.26.15-.48.33-.58.63-.15-.09-.12.04-.12.11,0,.31,0,.62,0,.93,0,.13,0,.26-.18.28-.18.01-.28-.06-.33-.25-.19-.71-.09-1.36.33-1.96.02.06.01.16.12.11.45-.21.95-.29,1.42-.44.03,0,.06,0,.09-.01.08.02.16.02.22-.04.58-.04,1.16-.08,1.74-.13.68.05,1.37.03,2.04.15.57.23,1.17.36,1.69.77.19.15.72.23,1.07-.13.34-.34.83-.41,1.27-.57.25-.05.49-.1.74-.15.65-.02,1.3-.05,1.96-.07.6.07,1.19.14,1.79.22.46.14.91.32,1.39.38.37.53.53,1.1.33,1.74-.06.2.04.38.07.58-.28.24-.39.59-.61.87M98.01,14.65h0c-.01.09-.06.22.12.23v.03s-.04,0-.04,0c0,.24,0,.47-.01.71h0c-.09.03-.1.09-.03.16-.05.23-.24.35-.38.5-.39.21-.8.24-1.22.11-.24-.17-.48-.32-.58-.62.01-.38.03-.75.04-1.13v.03s0-.02,0-.02c.09.02.16,0,.21-.07.08.05.17.11.25.16,0,.23,0,.46,0,.69.03.39.32.48.62.49.25,0,.49-.07.49-.4h0c.09-.02.17-.04.09-.16-.01-.17,0-.34-.04-.5-.02-.1-.07-.24-.21-.23-.14.02-.09.15-.1.24-.02.16-.03.32-.21.37-.16.05-.29-.04-.42-.13-.16-.11-.12-.27-.12-.42.15-.09.28-.2.22-.4-.03-.11-.12-.15-.23-.13-.55.06-1.12.04-1.62.33-.53.17-.67.36-.63.88.03.33.08.67.12,1-.25-.15-.13-.46-.27-.71-.22,1.1,1.01,2.42,2.24,2.47.9.04,1.76-.12,2.64-.32-.1-.09-.25-.02-.31-.14.24-.07.48-.14.72-.22.5-.12.95-.33,1.18-.82.63-1.36.08-2.32-1.39-2.47-.04,0-.08,0-.13,0-.11,0-.23,0-.34,0-.34-.08-.69-.08-1.05-.06.06.2.33.22.29.44.04.03.07.06.11.09"/>
    <path class="cls-19" d="M100.99,14.15c-.48-.06-.93-.24-1.39-.38.2-.5.23-1.04.37-1.55.02-.07.07-.15.05-.2-.25-.63-.14-1.32-.41-1.97-.32-.78-.8-1.14-1.57-1.35-.53-.15-.99-.29-1.49.05-.2.13-.43.14-.62-.05.14-.16.3-.31.4-.49.43-.73,1.14-.89,1.89-.94.88-.05,1.31.25,1.65,1.08.34.82.58,1.65.5,2.56-.03.35.06.71.17,1.04.24.72.43,1.44.43,2.2"/>
    <path class="cls-19" d="M85.74,14.96c.1-.3.32-.48.58-.63.45-.09.89-.22,1.36-.17-.11.45-.23.9-.34,1.35-.2.75.4,1.47,1.03,1.45.87-.03,1.74-.05,2.61-.09.37-.01.6-.28.66-.57.07-.33.35-.71-.02-1.05.04-.32-.17-.56-.27-.84.54.05.8.26.91.76-.05.38-.1.76-.15,1.14-.3.35-.45.83-.94.99-.07,0-.13.02-.16.09l-.02.02h-.03c-.13-.03-.25-.02-.38,0-.91.22-1.82.17-2.73.03-.37-.05-.74-.19-1.13-.14l-.25-.13s-.06-.04-.09-.06h0s-.09-.05-.13-.08c-.21-.08-.27-.29-.4-.44-.02-.08-.05-.16-.07-.25-.01-.11-.02-.22-.03-.33,0-.36-.01-.72-.02-1.08M88.21,17.17c.93.04,1.85.09,2.85-.09-1.01-.11-1.93.14-2.85.09M87.78,17.01s-.04-.01-.05-.02v.03s.03,0,.05-.01"/>
    <path class="cls-19" d="M90.32,9.4s-.04-.14-.08-.14c-1-.16-2-.2-3,.07-.21.06-.4.14-.45.39-.02.1-.06.25-.21.22-.15-.03-.09-.18-.11-.28-.02-.07-.05-.13-.07-.19.4-1.51,1.97-2.23,3.4-1.57.57.26.74.76.53,1.51"/>
    <path class="cls-12" d="M86.47,17.2c.08.04.16.08.25.13.11.07.21.11.34.15,1.01.29,2.03.52,3.09.34-.62.35-1.28.12-1.92.13.26.07.52.13.79.16.84.08,1.67.08,2.4-.46.39-.29.64-.68.91-1.06.04.04.07.08.11.12-.45.98-1.23,1.54-2.27,1.72-1.24.21-2.42-.08-3.6-.43,0-.02,0-.03,0-.05,0-.28-.21-.21-.37-.21-.1-.02-.19-.08-.24-.17.1-.03.25.05.3-.08.04-.12-.12-.13-.17-.21-.09-.13-.19-.25-.28-.37-.09-.12-.1-.23.07-.3.13.15.19.36.4.44.04.03.09.06.13.09,0,0,0,0,0,0,.03.02.06.04.09.06M87.91,17.87s-.02-.02-.03-.02c-.03,0-.06,0-.08,0,0,0,.01.02.02.02.03,0,.06,0,.09,0"/>
    <path class="cls-19" d="M85.02,17.47c0,.12,0,.23,0,.35-.33-.15-.62.13-.94.09h0c0-.12,0-.24-.16-.26h0c.03-.33-.17-.59-.26-.88-.24-.81-.14-1.1.56-1.5,0,.02,0,.05-.02.07-.05.11-.05.21.08.26.17.66.23,1.35.73,1.88"/>
    <path class="cls-11" d="M102.08,15.43c-.07.06-.15.11-.22.17.1-.24-.04-.52.13-.75.19,0,.38,0,.58,0,.05.06.11.08.19.07.17.14.27.31.34.51.04.94-.2,1.79-.84,2.5-.13.15-.29.27-.49.3-.14-.29-.17-.6-.18-.91,1.12-.31,1.11-.32,1.32-1.24.08-.34-.16-.58-.2-.88-.01-.09-.13-.09-.22-.05-.15.08-.33.11-.41.29"/>
    <path class="cls-19" d="M86.98,13.74c-.47.15-.97.22-1.42.44-.11.05-.1-.05-.12-.11.25-.63.55-1.26.54-1.96.28-.04.4.15.44.36.1.46.35.86.56,1.28"/>
    <path class="cls-19" d="M91.38,9.9c-.34-.03-.45-.38-.71-.52.46-.53,1-.99,1.45-1.67.07.76-.12,1.35-.5,1.89-.03.06-.07.11-.1.17-.04.04-.09.09-.13.13"/>
    <path class="cls-19" d="M93.87,9.31c-.17-.02-.34-.01-.49-.1.29-.31.57-.62.94-1.01.01.52-.25.81-.45,1.12"/>
    <path class="cls-19" d="M86.03,10.79c0,.21.08.43-.07.63,0-.21-.03-.43.07-.63"/>
    <path class="cls-12" d="M85.75,16.04c.01.11.02.22.03.33-.1-.1-.11-.21-.03-.33"/>
    <path class="cls-11" d="M84.29,15.59c-.13-.05-.13-.15-.08-.26.1.06.09.16.08.26"/>
    <path class="cls-11" d="M91.5,9.77c.03-.06.07-.11.1-.17-.03.05-.07.11-.1.17"/>
    <path class="cls-19" d="M85.97,11.85s.02.04.03.06c0,0-.02.02-.02.03v-.08Z"/>
    <path class="cls-20" d="M86.74,28.74s0,.05-.03.08c0-.02,0-.04,0-.06,0,0,.02,0,.04-.01"/>
    <path class="cls-18" d="M87.42,45.45c.58.37,1.07.36,1.63-.02.13-.09.24-.2.38-.27.22-.12.32-.29.27-.52-.06-.25-.24-.38-.5-.34-.12.02-.15-.04-.17-.13.35-.27.32-.61.28-1.01-.09-.9-.22-1.8-.35-2.69-.02-.15,0-.31,0-.46.22.08.44.17.65.25.06.07-.4.06-.03.19.15.05.26.17.18.32-.33.64-.03,1.28-.02,1.91,0,.38.12.76-.18,1.09.2.11.37.16.56.14.37.13.74.26,1.11.38.22.07.44.12.6-.12.05-.01.09-.03.14-.04.1.72-.23,1.08-.91,1.27-.61.18-.97.76-1.5,1.09-.56.35-1.47.32-1.99-.1-.34-.27-.18-.62-.16-.94"/>
    <path class="cls-14" d="M90.14,43.91c-.19.01-.36-.03-.56-.14.3-.33.19-.7.18-1.09-.01-.64-.31-1.28.02-1.91.08-.16-.03-.27-.18-.32-.37-.13.1-.11.03-.19.29.06.57.13.86.19.06.17.14.17.25.05.09,0,.17,0,.26,0,.01.16-.05.35.14.45.82.42.96,1.11.79,1.93-.23-.03-.29-.19-.24-.37.07-.26-.01-.5-.06-.75-.07-.39-.41-.21-.63-.29-.62-.22-.87-.04-.77.6.1.62.13,1.23-.1,1.83"/>
    <path class="cls-11" d="M88.61,37.08c-.14-.29-.49-.44-.71-.46-.61-.04-.52-.52-.65-.85-.04-.08,0-.2,0-.3.4-.1.73-.32,1.02-.6.14.21.34.3.59.26,0,.17.02.34.02.51-.25.18-.24.34,0,.53.32.25.62.51.93.77-.27.23-.59.2-.91.17-.09,0-.19-.01-.28-.02M88.98,36.69c-.15-.19-.3-.39-.6-.43.02.42.32.4.6.43"/>
    <path class="cls-14" d="M91.51,32.52c-.2-.33-.15-.73-.27-1.09-.11-.32-.22-.64-.44-.91-.19-.23-.44-.32-.72-.23-.29.09-.42.31-.45.61-.05.5.05.99.14,1.48.02.13.07.25.02.38-.07,0-.15,0-.22,0-.15-.64-.3-1.27-.2-1.93.05-.32.09-.67.52-.76.21-.04.17-.23.16-.38-.03-.67.33-2.94.33-2.94,0,0,.04-.01.12-.03.08.69-.22,2.25-.18,2.93.01.2.01.34.27.39.21.04.38.19.5.37.41.64.6,1.33.58,2.09-.05,0-.1.02-.15.03"/>
    <path class="cls-14" d="M92.71,30.95c-.04-.29-.08-.58-.12-.87.23-.39.15-.75-.11-1.09.1.04.21.08.31.13.61.24.72.17.76-.49,0-.08,0-.17.07-.23.3.27.62.53.27.99,0,0,.03.04.04.07-.12.5-.52.85-.67,1.33-.02,0-.03,0-.05-.01-.04-.19-.16-.3-.35-.34-.02,0-.03,0-.05,0,0,0,.02.02.03.03.04.19.15.3.34.35,0,.06.02.12.03.18,0,.13-.01.27-.02.4-.11-.03-.22-.05-.33-.08,0-.14.18-.36-.16-.34"/>
    <path class="cls-12" d="M92.87,31.29c.11.03.22.05.33.08,0,.25-.02.51-.01.76.02,1.03.05,2.05.07,3.08-.08.03-.25-.02-.14.15.06.1.11.2.09.31-.02.12.06.27-.08.34-.08.04-.15-.05-.2-.11-.08-.09-.11-.16-.07-.33.05-.18.2-.54-.14-.7.04-1.01.08-2.02.12-3.03.1.37,0,.76.09,1.13-.03-.38.13-.77-.08-1.14-.11-.11-.08-.25-.06-.38.07-.04.08-.1.08-.17"/>
    <path class="cls-13" d="M91.06,26.5c.09.03.21,0,.28.09.35.72.94,1.19,1.62,1.55-.05.06-.11.12-.16.18-.3.02-.53-.09-.73-.32-.13-.15-.31-.32-.51-.05-.31-.39-.51-.85-.71-1.3.07-.05.13-.11.2-.16"/>
    <path class="cls-15" d="M91.57,27.96c.19-.27.38-.1.51.05.2.22.43.34.73.32-.02.27-.5.3-.33.67.26.34.35.7.11,1.09-.28-.74-.67-1.42-1.02-2.12"/>
    <path class="cls-14" d="M92.71,34.87c.34.17.19.52.14.7-.04.17-.01.23.07.33.05.06.12.15.2.11.14-.07.06-.22.08-.34.02-.11-.03-.21-.09-.31-.1-.17.07-.13.14-.15.03.45.06.9.09,1.35-.16.04-.27-.08-.4-.13-.09-.1-.18-.19-.33-.18.03-.46.06-.91.09-1.37"/>
    <path class="cls-19" d="M91.51,32.52s.1-.02.15-.03c.12.51.15,1.04.18,1.56.02.37-.18.65-.4.91-.06.07-.14.1-.22.04-.08-.07-.08-.17,0-.22.65-.42.33-1.04.33-1.59,0-.22-.07-.45-.04-.68"/>
    <path class="cls-19" d="M89.56,32.76c.07,0,.15,0,.22,0,.1.54.17,1.09.34,1.62.09.26.2.47.51.49.11,0,.21.04.17.17-.04.13-.15.11-.25.07-.28-.1-.5-.27-.59-.57-.19-.58-.33-1.18-.41-1.79"/>
    <path class="cls-19" d="M89.8,36.93c-.31-.26-.61-.52-.93-.77-.24-.19-.25-.35,0-.53.24.38.62.62.94.91.15.14.23.26,0,.39"/>
    <path class="cls-9" d="M92.62,36.24c.15-.01.24.08.33.18-.03.2.06.54-.17.68-.08,0-.16.03-.24.03,0-.26,0-.65.09-.9"/>
    <path class="cls-19" d="M88.44,34.49c.14.05.28.1.42.15,0,.16,0,.32-.02.48-.25.05-.45-.04-.59-.26,0-.06.02-.11.03-.17.02-.02.04-.05.06-.07.03-.05.07-.09.1-.14"/>
    <path class="cls-18" d="M92.87,31.29c0,.07-.02.13-.08.17-.03-.17-.05-.34-.08-.51.34-.02.16.2.16.34"/>
    <path class="cls-14" d="M92.26,40.55c0,.09-.02.17-.13.19-.12.02-.19-.04-.2-.16.11,0,.22-.02.33-.02"/>
    <path class="cls-18" d="M90.74,40.49c-.11.13-.2.12-.25-.05.08.02.17.03.25.05"/>
    <path class="cls-11" d="M88.35,34.63s-.04.05-.06.07c.02-.02.04-.05.06-.07"/>
    <path class="cls-8" d="M102.41,30.16c0,.43-.32.7-.59.95-.6.57-1.23,1.12-1.97,1.52-.3.07-.58.19-.85.33-.26.01-.52.08-.77-.05-.1-.09-.2-.18-.3-.26-.04-.03-.08-.06-.12-.08h0s-.06-.06-.09-.09h0c-.08-.27-.26-.47-.42-.69-.04-.08-.05-.19-.19-.22v1.09c0,.31,0,.62.01.94,0,.14,0,.28,0,.42,0,.28,0,.57,0,.85v.94c0,1.23-.02,2.46,0,3.69,0,.25-.04.44-.27.56-.31.09-.61.19-.92.28-.11.02-.23.05-.34.07-.34.04-.69.08-1.03.11-.17.02-.34.03-.51.05-.14,0-.28-.02-.41-.02-.09-1.18-.19-2.36-.28-3.54,0-.15-.01-.31-.02-.46-.03-.45-.06-.9-.09-1.35-.03-1.03-.05-2.05-.07-3.08,0-.25,0-.51.01-.76,0-.13.01-.27.02-.4.02-.06.04-.13.06-.19.14-.48.55-.84.67-1.33.41-.47.67-1.04.98-1.57.17-.26.34-.53.52-.79.12-.17.13-.45.41-.48.14.14.31.2.5.2.21.13.43.21.67.26.26.22.59.31.88.48.27.22.49.49.68.78.12.56.38,1.06.63,1.56.13.27.38.37.66.13.61-.54,1.24-1.08,1.85-1.61.56.29.72.78.71,1.37,0,.13-.01.27-.02.4M96.05,31.03c0,.19-.05.33-.24.44-.32.18-.26.55-.17.79.08.23.29.46.65.4.33-.06.51-.24.57-.54.07-.39-.15-.62-.48-.76-.11-1.28-.05-2.58-.36-3.84-.22,1.18.03,2.34.03,3.51M93.84,36.76c-.11.01-.18.07-.19.18-.01.13.06.21.19.22.11,0,.19-.06.2-.18.01-.13-.07-.2-.19-.22M93.63,33.79c-.13.02-.21.1-.22.22,0,.12.09.17.2.17.12,0,.19-.06.18-.18,0-.11-.05-.19-.17-.21M93.71,35.39c-.11,0-.17.07-.16.19,0,.11.06.2.18.19.12,0,.21-.09.21-.22,0-.12-.1-.15-.22-.16M93.8,32.04c-.01-.12-.09-.16-.2-.16-.11,0-.19.07-.18.18.01.11.1.16.21.16.12,0,.17-.07.17-.18"/>
    <path class="cls-12" d="M94.57,40.53c.34-.04.69-.08,1.03-.11.12.06.15.14.13.34-.1.78-.15,1.56-.13,2.35,0,.27-.08.55.09.8-.43.14-.85.28-1.28.41-.14.04-.33.07-.43-.07-.13-.16.1-.15.14-.24.03-.05.03-.11-.02-.15-.33-.32-.2-.76-.28-1.14.23-.12.23-.23,0-.35,0-.17,0-.34,0-.51.26-.36.31-.77.34-1.19.14-.03.34.08.42-.14"/>
    <path class="cls-12" d="M90.14,43.91c.22-.6.19-1.2.1-1.83-.1-.63.15-.82.77-.6.21.08.55-.1.63.29.05.25.12.49.06.75-.05.18.02.34.24.37-.03.31-.06.62-.08.93-.1.01-.21.03-.21.15-.01.14.18.1.22.2-.16.24-.39.19-.6.12-.37-.12-.74-.25-1.11-.38"/>
    <path class="cls-14" d="M95.68,43.91c-.17-.25-.08-.53-.09-.8-.02-.79.03-1.57.13-2.34.03-.2,0-.28-.13-.34.11-.02.23-.05.34-.07.18.25.18.54.15.83-.06.71-.1,1.43-.16,2.14-.02.21.05.35.32.37-.19.2-.42.1-.58.22"/>
    <path class="cls-14" d="M94.15,40.67c-.03.42-.08.83-.34,1.19-.13-.13-.12-.3-.06-.43.15-.32.16-.61-.1-.88.14,0,.28.02.41.02.03.03.06.06.09.1"/>
    <path class="cls-15" d="M93.35,36.56c0,.15.01.31.02.46-.2.03-.39.06-.59.09,0-.04.01-.07.02-.11.24-.14.12-.38.16-.58.13.06.24.17.4.13"/>
    <path class="cls-14" d="M91.85,44.17c-.04-.1-.23-.06-.22-.2,0-.11.12-.14.21-.15,0,.1.07.17.16.23,0,.03,0,.05,0,.08-.05.01-.09.02-.14.04"/>
    <path class="cls-14" d="M93.81,42.37c.23.12.23.23,0,.35,0-.12,0-.23,0-.35"/>
    <path class="cls-11" d="M84.08,17.91c.32.04.61-.24.94-.09.02.27-.03.52-.11.77-.37-.11-.65-.34-.83-.68"/>
    <path class="cls-11" d="M83.92,17.65c.17.02.17.14.16.26-.1-.06-.17-.14-.16-.26"/>
    <path class="cls-20" d="M88.34,37.23s-.01-.01-.02-.02c0,0,.02-.01.03-.01,0,0,.02.01.02.02,0,0-.02,0-.03.01"/>
    <path class="cls-12" d="M88.42,44.67c.24.01.46-.14.71-.06.23.07.29.21.08.35-.3.19-.63.36-1,.4-.09.01-.21.03-.26-.09-.04-.11.04-.19.12-.25.13-.11.3-.16.36-.34,0,0,0,0,0,0"/>
    <path class="cls-4" d="M102.41,30.16c0-.13.01-.27.02-.4.02,0,.05,0,.07,0,.63.04,1.2-.09,1.63-.58.14,0,.28,0,.41-.01.21,0,.41.02.62,0,.17-.01.4.1.5-.16.08,0,.16,0,.25,0,.03-.03.05-.06.08-.08,0-.03,0-.06,0-.1.14.39.08.48-.3.5-.39.02-.78.06-1.16.18-.06.02-.12.04-.17.06-.05.01-.1.02-.16.03-.04.02-.08.05-.12.07-.02,0-.04,0-.05.02-.03.02-.06.05-.08.07h0s-.06.05-.1.08c0,0-.02-.01-.02-.01-.45.22-.93.31-1.42.35"/>
    <path class="cls-4" d="M105.93,28.67h-1.84c.18-.27.34-.28.51-.28.41,0,.82,0,1.23,0,.13,0,.32.05.33-.16,0-.2-.17-.23-.33-.25-.36-.05-.7.06-1.05.07-.19,0-.39.05-.62-.05.17-.19.37-.18.57-.2.52-.05,1.04-.03,1.54-.19.13.8.1.91-.33,1.07"/>
    <path class="cls-4" d="M105.83,27.29c-.65.08-1.3.2-1.96.1.62-.23,1.27-.28,1.93-.27.01.06.02.11.04.17"/>
    <path class="cls-16" d="M103.85,29.83s.06-.06.1-.08c-.03.03-.06.06-.1.08"/>
    <path class="cls-16" d="M103.94,29.75s.06-.05.08-.07c-.03.02-.06.05-.08.07"/>
    <path class="cls-16" d="M104.08,29.65s.08-.05.12-.07c-.04.02-.08.05-.12.07"/>
    <path class="cls-7" d="M102.76,14.91c-.07,0-.14-.01-.19-.07.08,0,.14,0,.19.07"/>
    <path class="cls-19" d="M104.13,29.17c-.44.5-1.01.62-1.63.58.04-.27.33-.22.44-.22.45.03.74-.45,1.19-.37"/>
    <path class="cls-19" d="M105.67,29c-.1.26-.33.14-.5.16-.2.02-.41,0-.62,0,.06-.25.26-.16.41-.16.24,0,.47,0,.71,0"/>
    <path class="cls-19" d="M106,28.91s-.05.06-.08.08c.03-.03.05-.06.08-.08"/>
    <path class="cls-14" d="M87.55,13.33c.22-1.49,1.92-2.04,2.75-1.74.16.06.35.13.33.33-.02.2-.22.18-.37.2q-1.5.13-2.71,1.21"/>
    <path class="cls-14" d="M98.75,13.12c-.54-.52-1.08-.98-1.82-1.06-.32-.04-.65-.02-.98-.04-.15,0-.3-.04-.33-.21-.03-.15.09-.24.21-.28.98-.4,2.69.16,2.92,1.59"/>
    <path class="cls-19" d="M95.85,13.62c-.25.05-.49.1-.74.15-.05-.18.07-.3.17-.41.48-.51,1.4-.61,2-.22.12.08.35,0,.34.25-.15-.03-.3-.06-.46-.07-.47-.06-.93-.04-1.31.29"/>
    <path class="cls-19" d="M91.08,13.71c-.68-.12-1.36-.1-2.04-.15.07-.46.23-.59.64-.48.35.1.74-.05,1.07.18.17.11.34.21.33.45"/>
    <path class="cls-8" d="M95.85,13.62c.38-.34.84-.35,1.31-.29.15.02.3.05.46.07.06.05.12.1.19.15-.65.02-1.3.05-1.96.07"/>
    <path class="cls-19" d="M87.29,13.69c-.07.06-.14.06-.22.04.06-.08.14-.08.22-.04"/>
    <path class="cls-18" d="M91.04,10.38s.03.03.05.04c0,0-.02.02-.03.03,0-.02,0-.04-.02-.07,0,0-.01,0-.01,0"/>
    <path class="cls-19" d="M102.08,15.43c.08-.18.26-.21.41-.29.09-.05.2-.04.22.05.05.3.29.54.2.88-.22.92-.21.93-1.32,1.24.28-.39.51-.82.74-1.24.17-.31.12-.54-.25-.64"/>
    <path class="cls-13" d="M95.86,26.6c-.28.03-.29.31-.41.48-.18.26-.35.53-.52.79-.12-.18-.24-.17-.42-.06-.25.15-.44.41-.76.41.05-.24.19-.39.4-.54.42-.29.81-.63.95-1.16.12-.09.26-.15.41-.16.12.08.24.16.36.24"/>
    <path class="cls-12" d="M92.48,28.99c-.17-.36.31-.4.33-.67.05-.06.11-.12.16-.18.06-.06.13-.12.19-.17.04,0,.08,0,.12,0,.11.12.23.23.34.35,0,.03,0,.05,0,.08-.07.06-.07.15-.07.23-.04.66-.15.74-.76.49-.1-.04-.21-.08-.31-.13"/>
    <path class="cls-9" d="M93.62,28.31c-.11-.12-.23-.23-.34-.35.51-.2.85-.6,1.12-1.05.16-.27.36-.42.68-.4-.14.53-.53.87-.95,1.16-.21.15-.35.29-.4.54-.04.03-.07.06-.11.09"/>
    <path class="cls-9" d="M93.16,27.97c-.06.06-.13.12-.19.17-.68-.37-1.27-.84-1.62-1.55.2.05.4.11.61.16.23.38.47.76.89.97,0,0,.01,0,.01,0,.01.06.03.11.1.12.07.04.14.08.21.12"/>
    <path class="cls-11" d="M92.83,27.73c-.41-.22-.65-.59-.89-.97.84.06.86.09.89.97"/>
    <path class="cls-11" d="M92.95,27.86c-.07-.01-.09-.06-.1-.12.08,0,.1.06.1.12"/>
    <path class="cls-6" d="M97.21,25.62s-.05.03-.08.05c.03-.02.05-.03.08-.05"/>
    <path class="cls-11" d="M86.55,17.99c1.17.35,2.36.64,3.6.43,1.05-.18,1.82-.74,2.27-1.72.06-.17.13-.34.18-.51.03-.11,0-.21-.15-.13h0c.08.09.13.08.17-.03,0-.03,0-.05.01-.08.05-.18.12-.35.14-.53.02-.35.22-.46.53-.43.37.09.22.47.38.67-.16.12-.15.21.04.27.01.05.02.11.04.16-.14.08-.12.21-.1.34.1.54.15,1.09.36,1.61.14.36.23.71-.18.98-.15.1-.14.29-.15.43-.02.19.1.15.21.06.26.01.5-.06.74-.15.69-.24.81-.6.36-1.18-.07-.09-.23-.17-.07-.31,1.17.78,2.44.68,3.73.43.64-.12,1.26-.3,1.82-.66-.01.38.34.54.52.79.21.27.29.49.26.84-.05.59-.25,1.12-.52,1.63-.36.69-1.06.87-1.73.98-.4.07-.87.15-1.28-.09.35-.66.66-1.34.77-2.09.21-.04.13.16.19.24.05.07.04.22.17.2.11-.02.12-.14.14-.24,0-.03,0-.06,0-.08.01-.34-.14-.56-.49-.63-.4-.08-.21.22-.25.37,0,.01-.02.02-.02.03-.08.04-.16.07-.23.11-.08.01-.17.01-.25.04-1.01.38-2.02.72-3.1.86-1.44.2-2.87.15-4.3-.11-.52-.1-1.03-.26-1.56-.29-.2-.17-.41-.32-.7-.25,0-.02,0-.04,0-.06.03-.04.05-.08.08-.12.19-.03.46-.02.43-.27-.02-.13-.28-.11-.43,0-.53.11-.6.26-.49,1.01q.13.71-.63.7c-.58,0-1.16-.6-1.19-1.16-.04-.69.03-1.33.61-1.8.08-.07.08-.18.08-.28M93.15,18.93c.27.04.45-.12.58-.36.13-.25-.03-1.09-.25-1.27-.16-.13-.33-.1-.43.08-.15.26-.27.52-.4.79-.29.6-.2.74.5.77M91.55,19.16c.18.3.53.2.77.36.13.09.34.17.4,0,.05-.16-.15-.3-.32-.33-.28-.05-.56.02-.85-.03"/>
    <path class="cls-18" d="M88.1,19.96c.29-.07.5.08.7.25.06.45.26.72.73.86,1.41.43,2.85.56,4.32.46.01.02.03.05.03.07,0,.02-.03.04-.05.04-.62,0-1.25,0-1.89,0,.04.15.19.23.18.38-.38.15-.77.27-1.12.46-.2.11-.48.17-.51.48-.31-.08-.62-.16-.94-.24-.44-.18-.68-.56-.88-.95-.29-.57-.52-1.18-.57-1.83"/>
    <path class="cls-8" d="M89.54,22.73c.31.08.62.16.94.24.57.2,1.17.32,1.78.36,1.13.06,2.26.09,3.35-.3.1,0,.19-.01.25-.09h0c.25-.04.49-.1.69-.26.14-.04.28-.07.42-.11-.08.38-.43.5-.69.68-1.89,1.29-4.6,1.23-6.43-.12-.13-.1-.35-.16-.3-.4"/>
    <path class="cls-18" d="M96.96,22.57c-.14.04-.28.07-.42.11-.28-.16-.53-.37-.87-.41-.03,0-.06-.01-.1-.02-.03-.02-.06-.04-.09-.06-.4-.09-.8-.19-1.19-.28-.15-.29.17-.21.28-.31-.19-.06-.37.03-.52-.1,1.15-.13,2.28-.35,3.34-.87.39-.2.6-.49.6-.93.08-.04.16-.07.23-.11.1,0,.19.02.25.11-.11.75-.42,1.43-.77,2.09-.24.27-.39.62-.75.78"/>
    <path class="cls-11" d="M94.31,25.07c-.09.16-.15.39-.29.53-.45.44-1.8.28-1.99-.33-.1-.3.01-.51.31-.45.5.1,1-.05,1.5-.02.19.01.42-.07.48.26"/>
    <path class="cls-4" d="M87.69,20.53c-.11-.75-.03-.9.49-1.01,0,.09,0,.18,0,.26-.03.04-.05.08-.08.12-.17.08-.18.23-.18.38,0,.16-.03.28-.23.25"/>
    <path class="cls-18" d="M86.18,17.74c.16,0,.36-.07.37.21-.12-.07-.25-.14-.37-.21"/>
    <path class="cls-19" d="M99,14.18s.09-.01.13,0c1.47.15,2.02,1.11,1.39,2.47-.23.49-.68.7-1.18.82-.27-.13-.59-.01-.86-.17.01-.09.02-.18-.07-.25.05-.14.26-.15.26-.33.05,0,.12,0,.14-.08,0,0-.01-.02-.02-.03-.04.04-.08.07-.12.11-.27.14-.56.17-.86.18-.67.01-1.36-.09-2.11.14.24.02.38.03.52.04.06.1.11.2.17.31-.17.02-.34-.03-.5-.03-.21,0-.42-.23-.63-.01-.04-.03-.08-.07-.13-.1-.06-.05-.12-.12-.21-.09h0c0-.12-.07-.16-.18-.17h0c0-.05-.02-.09-.09-.09h0c.02-.09-.05-.13-.1-.2,0-.02-.02-.04-.04-.05-.07-.09-.14-.18-.21-.27h0c-.04-.33-.09-.66-.12-.99-.04-.52.1-.71.63-.88.04.15-.07.28-.08.42-.16.16-.08.35-.07.53,0,.07,0,.15,0,.22.05.81.36,1.14,1.16,1.12.55-.02,1.1-.1,1.65-.07.29.02.56-.04.84-.09.41-.09.79-.65.7-1.02v-.51c.36.2.03.57.21.83.15-.62-.09-1.18-.22-1.75M99.05,16.34s-.05-.03-.06-.02c-.02,0-.03.04-.03.06,0,.02.04.03.06.03.02,0,.02-.04.03-.06"/>
    <path class="cls-8" d="M94.75,14.92c.01-.14.12-.27.08-.42.5-.29,1.07-.27,1.62-.33.11-.01.2.02.23.13.06.2-.07.31-.22.4-.03,0-.06.02-.09.03l-.25-.16c0-.05,0-.13-.07-.11-.08.02-.12.1-.14.19l.02.02s-.01-.03-.01-.03c-.22.37-.24.75-.04,1.13.1.3.35.45.58.62-.36.31-1.15.22-1.34-.17-.11-.22-.25-.39-.43-.54,0-.07,0-.15,0-.22.24-.15.17-.34.07-.53"/>
    <path class="cls-8" d="M91.33,14.42c.1.28.31.52.27.84,0,.13.01.26-.03.38-.14.37-.1.88-.62.97-.33.06-.68.08-1-.07.38-.27.67-.6.68-1.1,0-.5-.22-.86-.64-1.13-.1-.06-.26-.03-.29-.19.55.07,1.11.07,1.63.3"/>
    <path class="cls-8" d="M87.33,15.51c.11-.45.23-.9.34-1.35.14-.03.28-.05.43-.08h1.05c-.36.16-.04.44-.13.63-.05.04-.11.09-.16.13-.12.03-.23.02-.32-.07-.13-.14-.19-.07-.24.06-.16.42-.26.83.07,1.22,0,0,0,.01,0,.01.04.05.08.1.12.14,0,0,0,0,0,0,.03.03.07.06.1.09,0,.11.18.04.18.15-.3.23-.67.2-.97-.08-.26-.24-.35-.55-.47-.86"/>
    <path class="cls-18" d="M95.12,17.23s.08.07.13.1c.25.24.55.34.88.41.84.18,1.66.12,2.49-.07.06.12.2.05.31.14-.88.21-1.75.36-2.64.32-1.23-.05-2.45-1.37-2.24-2.47.14.24.02.55.27.71,0,0,0,0,0,0,0,.14.05.24.21.27.02,0,.04.02.04.05,0,.08.01.16.1.2h0s.06.05.09.09h0c.03.08.09.14.18.17h0c.05.08.12.1.21.09"/>
    <path class="cls-8" d="M99.02,15.1c0,.17,0,.34,0,.51-.07.05-.17.09-.19.15-.21.57-.67.57-1.15.51.14-.16.33-.28.38-.5,0-.05.02-.11.03-.16h0c.13-.23.11-.46.01-.7h.03s0-.03,0-.03c-.04-.08-.08-.16-.12-.24,0,0,0,.01,0,.01-.04-.03-.07-.06-.11-.09.04-.22-.23-.25-.29-.44.36-.02.71-.02,1.05.06.02.35.23.62.35.93"/>
    <path class="cls-4" d="M94.91,17.89c-.16.14,0,.22.07.31.45.57.34.93-.36,1.18-.24.08-.48.16-.74.15,0-.16,0-.3.14-.43.45-.43.49-.77.12-1.31-.2-.28-.2-.54-.08-.83.26.33.52.66.85.93"/>
    <path class="cls-11" d="M87.33,15.51c.12.31.22.63.47.86.3.28.66.31.97.08.39.1.77.24,1.18.08.33.15.68.12,1,.07.52-.09.48-.6.62-.97.04-.11.02-.25.03-.38.37.34.09.72.02,1.05-.06.29-.29.56-.66.57-.87.03-1.74.06-2.61.09-.62.02-1.23-.7-1.03-1.45"/>
    <path class="cls-18" d="M91.33,14.42c-.52-.23-1.08-.23-1.63-.3-.08-.15-.43.03-.37-.21.05-.2.31-.08.49-.05.44.08.89.03,1.34.17.44.14.83.33,1.24.51.29.13.49.5.88.39,0,0,.02.02.02.03,0,.01,0,.03-.01.04-.32-.03-.51.07-.53.43-.01.18-.09.35-.14.53,0,.03,0,.05-.01.08-.03.11-.09.12-.17.04,0-.12-.01-.24-.02-.37.28-.29-.1-.36-.18-.52-.12-.5-.37-.71-.91-.76"/>
    <path class="cls-11" d="M97.67,16.27c.49.06.94.06,1.15-.51.02-.07.13-.1.19-.15.09.37-.29.93-.7,1.02-.28.06-.55.11-.84.09-.55-.03-1.1.06-1.65.07-.8.02-1.11-.31-1.16-1.12.18.15.32.32.43.54.2.39.98.48,1.34.17.42.13.83.1,1.22-.11"/>
    <path class="cls-11" d="M98.62,17.67c-.82.19-1.65.25-2.49.07-.33-.07-.63-.18-.88-.41.21-.22.42,0,.63.01.16,0,.33.06.5.03.7.05,1.4-.04,2.1-.09.27.15.59.03.86.17-.24.07-.48.14-.72.22"/>
    <path class="cls-19" d="M94.06,16.96c-.12.29-.12.55.08.83.38.53.33.88-.12,1.31-.13.12-.13.27-.14.43-.1.09-.23.13-.21-.06.01-.14,0-.33.15-.43.4-.27.32-.62.18-.98-.2-.52-.26-1.07-.36-1.61-.02-.13-.04-.26.1-.34.12.28.11.61.31.86"/>
    <path class="cls-18" d="M96.37,14.72s.06-.02.09-.03c0,.15-.04.3.12.42.13.09.26.18.42.13.18-.06.19-.22.21-.37,0-.09-.04-.23.1-.24.14-.02.18.13.21.23.03.16.03.33.04.5-.03.06-.06.11-.09.17h0c-.48.3-.7.28-1.11-.1,0-.23,0-.46,0-.69"/>
    <path class="cls-18" d="M88.86,14.85c.05-.04.11-.09.16-.13,0,.07,0,.14.03.21.07.21.1.45.39.49.33.05.33-.24.44-.42.24.16.06.38.1.56-.42.42-.71.44-1.14.06-.03-.2-.11-.4-.08-.62.03-.05.06-.1.09-.15"/>
    <path class="cls-11" d="M99.02,15.1c-.12-.31-.33-.58-.35-.93.11,0,.23,0,.34,0,.13.57.37,1.13.22,1.75-.17-.26.16-.63-.21-.83"/>
    <path class="cls-4" d="M88.85,15.62c.43.38.72.36,1.14-.06,0,.25-.05.35-.31.46-.25.11-.5.12-.71-.09-.07-.07-.23-.15-.12-.31"/>
    <path class="cls-14" d="M88.86,14.85s-.06.1-.09.15c-.34,0-.43.19-.43.49,0,.19.15.38.04.57-.33-.39-.24-.8-.07-1.22.05-.12.11-.2.24-.06.08.09.2.09.32.07"/>
    <path class="cls-18" d="M88.1,14.09c-.14.03-.28.05-.43.08-.47-.05-.91.08-1.36.17,0-.01-.03-.03-.03-.03.33-.29,1.4-.41,1.81-.21"/>
    <path class="cls-4" d="M96.36,15.42c.41.38.63.4,1.11.09,0,.33-.24.4-.49.4-.31,0-.59-.1-.62-.49"/>
    <path class="cls-14" d="M95.87,15.77c-.2-.39-.18-.76.04-1.13-.01.38-.03.75-.04,1.13"/>
    <path class="cls-18" d="M98.09,14.9c.1.24.12.47-.01.71,0-.24,0-.47.01-.71"/>
    <path class="cls-19" d="M93.72,15.94c-.2-.06-.2-.15-.04-.27.01.09.03.18.04.27"/>
    <path class="cls-14" d="M95.91,14.64c.02-.08.05-.17.14-.19.06-.02.06.06.07.11-.05.08-.12.1-.21.07"/>
    <path class="cls-4" d="M97.47,15.52c.03-.06.06-.11.09-.17.08.12,0,.15-.09.17"/>
    <path class="cls-18" d="M98.01,14.63c.04.08.08.16.12.24-.18,0-.13-.13-.12-.24"/>
    <path class="cls-18" d="M98.08,15.6c0,.05-.02.11-.03.16-.07-.07-.06-.12.03-.16"/>
    <path class="cls-14" d="M88.5,16.22s-.08-.1-.12-.14c.11-.01.13.06.12.14"/>
    <path class="cls-14" d="M88.59,16.3s-.07-.06-.1-.09c.03.03.07.06.1.09"/>
    <path class="cls-18" d="M97.9,14.55s.07.06.11.09c-.04-.03-.07-.06-.11-.09"/>
    <path class="cls-18" d="M92.43,15.71c0,.12.01.24.02.37h0c-.04.16-.09.34-.13.51-.27.38-.52.77-.91,1.06-.73.54-1.56.54-2.4.46-.27-.02-.53-.09-.79-.16.64,0,1.3.22,1.92-.13h0c.12.02.23.02.31-.09.17-.11.34-.21.51-.32h.03s.02,0,.02,0c.07,0,.13-.02.16-.09.49-.16.64-.64.94-.99.25-.13.07-.49.33-.62"/>
    <path class="cls-11" d="M90.94,17.41c-.17.11-.34.21-.51.32-.11,0-.22-.01-.31.09h0c-1.06.18-2.08-.05-3.09-.34-.12-.04-.23-.08-.34-.15.39-.05.75.09,1.13.14.91.13,1.82.19,2.73-.03.13-.03.25-.04.38-.02"/>
    <path class="cls-11" d="M88.21,17.17c.92.04,1.83-.2,2.85-.09-1,.19-1.92.13-2.85.09"/>
    <path class="cls-12" d="M92.43,15.71c-.26.13-.08.49-.33.62.05-.38.1-.76.15-1.14.08.17.46.23.18.52"/>
    <path class="cls-11" d="M87.78,17.01s-.03,0-.04.01v-.03s.02,0,.04.02"/>
    <path class="cls-11" d="M91.16,17.32c-.03.08-.09.09-.16.09.03-.07.09-.1.16-.09"/>
    <path class="cls-11" d="M86.47,17.2s-.06-.04-.09-.06c.03.02.06.04.09.06"/>
    <path class="cls-11" d="M86.38,17.14s-.09-.06-.13-.09c.04.03.09.06.13.09"/>
    <path class="cls-18" d="M92.31,16.58c.04-.17.09-.35.13-.52.15-.07.18.03.15.13-.04.17-.12.34-.18.51-.04-.04-.07-.08-.11-.12"/>
    <path class="cls-17" d="M87.91,17.87s-.06,0-.09,0c0,0-.02-.01-.02-.02.03,0,.06,0,.08,0,0,0,.02.01.03.02"/>
    <path class="cls-19" d="M88.98,36.69c-.28-.03-.58-.01-.6-.43.3.03.45.24.6.43"/>
    <path class="cls-15" d="M93.62,28.31s.07-.06.11-.09c.33,0,.52-.26.76-.41.18-.11.3-.12.42.06-.31.54-.57,1.1-.98,1.57-.01-.02-.05-.06-.04-.07.35-.45.02-.72-.27-.99,0-.03,0-.05,0-.08"/>
    <path class="cls-12" d="M92.87,30.42c.19.04.3.15.35.34-.01.01-.02.02-.03.03-.18-.05-.3-.16-.34-.35l.02-.02Z"/>
    <path class="cls-12" d="M93.27,30.77c-.02.06-.04.13-.06.19,0-.06-.02-.12-.03-.18.01,0,.02-.02.03-.03.02,0,.03,0,.05.01"/>
    <path class="cls-12" d="M92.85,30.45s-.02-.02-.03-.03c.02,0,.03,0,.05,0,0,0-.02.02-.02.02"/>
    <path class="cls-18" d="M92.85,31.84c.21.37.05.76.08,1.14-.09-.37,0-.76-.09-1.13,0,0,.01,0,.01,0"/>
    <path class="cls-14" d="M96.05,31.03c0-1.17-.27-3.15-.05-4.33.09.04.15.06.15.06,0,0,.14,3.47.23,4.6-.28.06-.24-.2-.33-.33"/>
    <path class="cls-12" d="M96.05,31.03c.09.13.05.39.33.33.33.15.55.38.48.76-.06.3-.24.48-.57.54-.36.06-.57-.17-.65-.4-.09-.25-.15-.61.17-.79.2-.11.24-.25.24-.44M95.96,31.77c-.12.01-.14.09-.11.19-.05.12-.03.22.08.29.17.23.34.25.52,0l.02-.02c.19-.15.19-.29,0-.43l-.02-.02c-.14-.2-.29-.25-.45-.03-.02,0-.03,0-.03.03"/>
    <path class="cls-11" d="M93.84,36.76c.12.02.21.09.19.22-.01.11-.09.18-.2.18-.13,0-.2-.08-.19-.22,0-.11.09-.17.19-.18"/>
    <path class="cls-11" d="M93.63,33.79c.12.02.16.1.17.21,0,.12-.07.18-.18.18-.11,0-.2-.05-.2-.17,0-.12.09-.2.22-.22"/>
    <path class="cls-11" d="M93.71,35.39c.12,0,.22.04.22.16,0,.13-.09.21-.21.22-.12,0-.17-.08-.18-.19,0-.12.06-.18.16-.19"/>
    <path class="cls-11" d="M93.8,32.04c0,.12-.05.18-.17.18-.11,0-.2-.04-.21-.16-.01-.12.07-.17.18-.18.11,0,.19.04.2.16"/>
    <path class="cls-18" d="M94.15,40.67s-.06-.06-.09-.1c.17-.02.34-.03.51-.05-.08.22-.27.11-.42.14"/>
    <path class="cls-8" d="M98,19.7c0,.44-.21.73-.6.93-1.05.52-2.18.74-3.34.87-.08-.02-.15-.02-.22.03-1.47.09-2.9-.04-4.32-.46-.47-.14-.67-.42-.73-.86.53.03,1.04.19,1.56.29,1.43.26,2.85.31,4.3.11,1.08-.15,2.09-.48,3.1-.86.08-.03.17-.03.25-.04"/>
    <path class="cls-8" d="M93.15,18.93c-.7-.03-.79-.17-.5-.77.13-.27.25-.53.4-.79.1-.18.26-.21.43-.08.22.18.38,1.02.25,1.27-.13.24-.31.4-.58.36"/>
    <path class="cls-4" d="M98.48,19.71c-.06-.09-.15-.1-.25-.11,0-.01.02-.02.02-.03.04-.15-.15-.45.25-.37.35.07.5.28.49.63,0,.03,0,.06,0,.08-.02.1-.03.22-.14.24-.13.03-.12-.12-.17-.2-.06-.08.01-.28-.19-.24"/>
    <path class="cls-19" d="M91.55,19.16c.29.05.57-.02.85.03.17.03.37.16.32.33-.06.18-.27.09-.4,0-.24-.17-.59-.06-.77-.36"/>
    <path class="cls-19" d="M88.18,19.78c0-.09,0-.18,0-.26.15-.11.42-.13.43,0,.03.25-.24.24-.43.27"/>
    <path class="cls-12" d="M92.61,16.03s0-.05.01-.08c0,.03,0,.05-.01.08"/>
    <path class="cls-10" d="M94.3,21.91c.4.09.8.19,1.19.28.03.02.06.04.09.06.03,0,.06.01.1.02.09.22.47.36.18.68h0c-.1,0-.21-.05-.25.09-1.09.39-2.22.36-3.35.3-.61-.03-1.2-.15-1.78-.36.03-.31.32-.37.51-.48.36-.19.75-.31,1.12-.46.72-.15,1.46-.12,2.19-.12"/>
    <path class="cls-12" d="M94.3,21.91c-.73,0-1.46-.02-2.19.12.01-.15-.14-.23-.18-.38.64,0,1.26,0,1.89,0,.02,0,.05-.03.05-.04,0-.02-.02-.05-.03-.07.07-.05.14-.05.22-.03.14.13.33.03.52.1-.11.1-.44.02-.28.31"/>
    <path class="cls-12" d="M95.85,22.94c.29-.32-.09-.46-.18-.68.33.05.59.25.87.41-.2.16-.44.22-.69.26"/>
    <path class="cls-12" d="M95.61,23.03c.05-.13.16-.09.25-.09-.07.08-.16.1-.25.09"/>
    <path class="cls-12" d="M95.58,22.25s-.06-.04-.09-.06c.03.02.06.04.09.06"/>
    <path class="cls-4" d="M98.48,17.29c-.7.05-1.4.14-2.1.09-.06-.1-.11-.21-.17-.31.73,0,1.47-.02,2.2-.03.09.06.08.15.07.25"/>
    <path class="cls-11" d="M98.41,17.04c-.73,0-1.47.02-2.2.03-.14-.01-.28-.02-.52-.04.76-.23,1.44-.13,2.11-.14.3,0,.59-.04.86-.18h0c0,.18-.21.19-.26.33"/>
    <path class="cls-11" d="M94.75,14.92c.1.19.17.38-.07.53,0-.18-.08-.37.07-.53"/>
    <path class="cls-12" d="M94.52,16.63c-.15-.02-.21-.12-.21-.27.07.09.14.18.21.27"/>
    <path class="cls-11" d="M99.05,16.34s-.01.06-.03.06c-.02,0-.05-.01-.06-.03,0-.02.01-.05.03-.06.02,0,.04.02.06.02"/>
    <path class="cls-11" d="M98.66,16.71s.08-.07.12-.11c0,.01.02.03.02.03-.02.07-.08.07-.14.08h0"/>
    <path class="cls-12" d="M94.92,17.14c-.09-.03-.15-.09-.18-.18.11,0,.19.05.18.18"/>
    <path class="cls-12" d="M94.66,16.88c-.09-.04-.1-.12-.1-.2.04.06.12.11.1.2"/>
    <path class="cls-12" d="M95.12,17.23c-.09,0-.17,0-.21-.09.1-.03.15.05.21.09"/>
    <path class="cls-12" d="M94.75,16.97s-.06-.06-.09-.09c.07,0,.09.03.09.09"/>
    <path class="cls-12" d="M90.13,17.82c.08-.1.2-.08.31-.09-.08.11-.19.1-.31.09"/>
    <path class="cls-11" d="M95.93,32.25c-.11-.07-.13-.17-.08-.29.13,0,.18-.06.11-.19,0-.02.01-.03.03-.03.15.07.3.06.45.03,0,0,.02.02.02.02,0,.14,0,.29,0,.43,0,0-.02.02-.02.02-.17,0-.35,0-.52,0"/>
    <path class="cls-19" d="M95.93,32.25c.17,0,.35,0,.52,0-.18.24-.35.23-.52,0"/>
    <path class="cls-19" d="M96.45,31.78c-.15.03-.31.04-.45-.03.17-.22.32-.17.45.03"/>
    <path class="cls-19" d="M96.47,32.23c0-.14,0-.29,0-.43.19.14.19.29,0,.43"/>
    <path class="cls-19" d="M95.96,31.77c.06.12.02.18-.11.19-.03-.1,0-.18.11-.19"/>
  </g>
  <text class="cls-33" transform="translate(61.13 52.82)"><tspan class="cls-36" x="0" y="0">Bran</tspan><tspan class="cls-22" x="24.06" y="0">d</tspan><tspan class="cls-36" x="30.93" y="0" xml:space="preserve"> Cl</tspan><tspan class="cls-22" x="43.93" y="0">i</tspan><tspan class="cls-35" x="46.56" y="0">n</tspan><tspan class="cls-25" x="53.26" y="0">i</tspan><tspan class="cls-35" x="55.89" y="0">c</tspan><tspan x="61.96" y="0">s</tspan></text>
</svg>